<mxfile host="app.diagrams.net" agent="Mozilla/5.0 (Windows NT 10.0; Win64; x64) AppleWebKit/537.36 (KHTML, like Gecko) Chrome/128.0.0.0 Safari/537.36" version="24.7.7">
  <diagram name="PÃ¡gina-1" id="nyVwOGt_h1lTwhFiet2C">
    <mxGraphModel grid="1" page="1" gridSize="10" guides="1" tooltips="1" connect="1" arrows="1" fold="1" pageScale="1" pageWidth="827" pageHeight="1169" math="0" shadow="0">
      <root>
        <mxCell id="0" />
        <mxCell id="1" parent="0" />
        <mxCell id="LdcuwyEImMKDFg9Y8jyX-1" value="ParametroMarcaFogo" style="swimlane;fontStyle=0;childLayout=stackLayout;horizontal=1;startSize=26;fillColor=none;horizontalStack=0;resizeParent=1;resizeParentMax=0;resizeLast=0;collapsible=1;marginBottom=0;whiteSpace=wrap;html=1;" vertex="1" parent="1">
          <mxGeometry x="-730" y="-190" width="270" height="104" as="geometry" />
        </mxCell>
        <mxCell id="LdcuwyEImMKDFg9Y8jyX-2" value="taxas: List" style="text;strokeColor=none;fillColor=none;align=left;verticalAlign=top;spacingLeft=4;spacingRight=4;overflow=hidden;rotatable=0;points=[[0,0.5],[1,0.5]];portConstraint=eastwest;whiteSpace=wrap;html=1;" vertex="1" parent="LdcuwyEImMKDFg9Y8jyX-1">
          <mxGeometry y="26" width="270" height="26" as="geometry" />
        </mxCell>
        <mxCell id="LdcuwyEImMKDFg9Y8jyX-3" value="documentos: List" style="text;strokeColor=none;fillColor=none;align=left;verticalAlign=top;spacingLeft=4;spacingRight=4;overflow=hidden;rotatable=0;points=[[0,0.5],[1,0.5]];portConstraint=eastwest;whiteSpace=wrap;html=1;" vertex="1" parent="LdcuwyEImMKDFg9Y8jyX-1">
          <mxGeometry y="52" width="270" height="26" as="geometry" />
        </mxCell>
        <mxCell id="f7vZeGXqb7RCeZj0weYw-10" value="certidoes: List" style="text;strokeColor=none;fillColor=none;align=left;verticalAlign=top;spacingLeft=4;spacingRight=4;overflow=hidden;rotatable=0;points=[[0,0.5],[1,0.5]];portConstraint=eastwest;whiteSpace=wrap;html=1;" vertex="1" parent="LdcuwyEImMKDFg9Y8jyX-1">
          <mxGeometry y="78" width="270" height="26" as="geometry" />
        </mxCell>
        <mxCell id="LdcuwyEImMKDFg9Y8jyX-4" value="TaxaMarcaFogo" style="swimlane;fontStyle=0;childLayout=stackLayout;horizontal=1;startSize=26;fillColor=none;horizontalStack=0;resizeParent=1;resizeParentMax=0;resizeLast=0;collapsible=1;marginBottom=0;whiteSpace=wrap;html=1;" vertex="1" parent="1">
          <mxGeometry x="-390" y="-30" width="200" height="78" as="geometry" />
        </mxCell>
        <mxCell id="LdcuwyEImMKDFg9Y8jyX-5" value="tipoEmissao: TipoEmissao" style="text;strokeColor=none;fillColor=none;align=left;verticalAlign=top;spacingLeft=4;spacingRight=4;overflow=hidden;rotatable=0;points=[[0,0.5],[1,0.5]];portConstraint=eastwest;whiteSpace=wrap;html=1;" vertex="1" parent="LdcuwyEImMKDFg9Y8jyX-4">
          <mxGeometry y="26" width="200" height="26" as="geometry" />
        </mxCell>
        <mxCell id="LdcuwyEImMKDFg9Y8jyX-6" value="tributo: TributoTaxaDividasDiversas" style="text;strokeColor=none;fillColor=none;align=left;verticalAlign=top;spacingLeft=4;spacingRight=4;overflow=hidden;rotatable=0;points=[[0,0.5],[1,0.5]];portConstraint=eastwest;whiteSpace=wrap;html=1;" vertex="1" parent="LdcuwyEImMKDFg9Y8jyX-4">
          <mxGeometry y="52" width="200" height="26" as="geometry" />
        </mxCell>
        <mxCell id="LdcuwyEImMKDFg9Y8jyX-8" value="" style="endArrow=open;html=1;endSize=12;startArrow=diamondThin;startSize=14;startFill=0;edgeStyle=orthogonalEdgeStyle;rounded=0;" edge="1" parent="1" source="LdcuwyEImMKDFg9Y8jyX-4" target="LdcuwyEImMKDFg9Y8jyX-2">
          <mxGeometry relative="1" as="geometry">
            <mxPoint x="-20" as="sourcePoint" />
            <mxPoint x="140" as="targetPoint" />
            <Array as="points">
              <mxPoint x="-240" y="-80" />
              <mxPoint x="-240" y="-80" />
            </Array>
          </mxGeometry>
        </mxCell>
        <mxCell id="LdcuwyEImMKDFg9Y8jyX-9" value="0..n" style="edgeLabel;resizable=0;html=1;align=left;verticalAlign=top;" connectable="0" vertex="1" parent="LdcuwyEImMKDFg9Y8jyX-8">
          <mxGeometry x="-1" relative="1" as="geometry">
            <mxPoint x="10" y="-40" as="offset" />
          </mxGeometry>
        </mxCell>
        <mxCell id="LdcuwyEImMKDFg9Y8jyX-10" value="1" style="edgeLabel;resizable=0;html=1;align=right;verticalAlign=top;" connectable="0" vertex="1" parent="LdcuwyEImMKDFg9Y8jyX-8">
          <mxGeometry x="1" relative="1" as="geometry">
            <mxPoint x="30" y="1" as="offset" />
          </mxGeometry>
        </mxCell>
        <mxCell id="LdcuwyEImMKDFg9Y8jyX-11" value="TributoTaxaDividasDiversas" style="swimlane;fontStyle=0;childLayout=stackLayout;horizontal=1;startSize=26;fillColor=none;horizontalStack=0;resizeParent=1;resizeParentMax=0;resizeLast=0;collapsible=1;marginBottom=0;whiteSpace=wrap;html=1;" vertex="1" parent="1">
          <mxGeometry x="-160" y="20" width="200" height="30" as="geometry" />
        </mxCell>
        <mxCell id="LdcuwyEImMKDFg9Y8jyX-12" style="edgeStyle=orthogonalEdgeStyle;rounded=0;orthogonalLoop=1;jettySize=auto;html=1;exitX=1;exitY=0.5;exitDx=0;exitDy=0;" edge="1" parent="1" source="LdcuwyEImMKDFg9Y8jyX-6" target="LdcuwyEImMKDFg9Y8jyX-11">
          <mxGeometry relative="1" as="geometry" />
        </mxCell>
        <mxCell id="LdcuwyEImMKDFg9Y8jyX-13" value="TipoEmissaoMarcaFogo" style="swimlane;fontStyle=0;childLayout=stackLayout;horizontal=1;startSize=26;fillColor=none;horizontalStack=0;resizeParent=1;resizeParentMax=0;resizeLast=0;collapsible=1;marginBottom=0;whiteSpace=wrap;html=1;" vertex="1" parent="1">
          <mxGeometry x="-160" y="-90" width="200" height="52" as="geometry" />
        </mxCell>
        <mxCell id="LdcuwyEImMKDFg9Y8jyX-14" value="PRIMEIRO_VIA, SEGUNDA_VIA" style="text;strokeColor=none;fillColor=none;align=left;verticalAlign=top;spacingLeft=4;spacingRight=4;overflow=hidden;rotatable=0;points=[[0,0.5],[1,0.5]];portConstraint=eastwest;whiteSpace=wrap;html=1;" vertex="1" parent="LdcuwyEImMKDFg9Y8jyX-13">
          <mxGeometry y="26" width="200" height="26" as="geometry" />
        </mxCell>
        <mxCell id="LdcuwyEImMKDFg9Y8jyX-15" style="edgeStyle=orthogonalEdgeStyle;rounded=0;orthogonalLoop=1;jettySize=auto;html=1;exitX=1;exitY=0.5;exitDx=0;exitDy=0;entryX=0.185;entryY=1.038;entryDx=0;entryDy=0;entryPerimeter=0;" edge="1" parent="1" source="LdcuwyEImMKDFg9Y8jyX-5" target="LdcuwyEImMKDFg9Y8jyX-14">
          <mxGeometry relative="1" as="geometry" />
        </mxCell>
        <mxCell id="LdcuwyEImMKDFg9Y8jyX-16" value="TipoDoctoOficial" style="swimlane;fontStyle=0;childLayout=stackLayout;horizontal=1;startSize=26;fillColor=none;horizontalStack=0;resizeParent=1;resizeParentMax=0;resizeLast=0;collapsible=1;marginBottom=0;whiteSpace=wrap;html=1;" vertex="1" parent="1">
          <mxGeometry x="-160" y="94" width="200" height="30" as="geometry" />
        </mxCell>
        <mxCell id="LdcuwyEImMKDFg9Y8jyX-17" style="edgeStyle=orthogonalEdgeStyle;rounded=0;orthogonalLoop=1;jettySize=auto;html=1;exitX=1;exitY=0.5;exitDx=0;exitDy=0;entryX=0.29;entryY=-0.033;entryDx=0;entryDy=0;entryPerimeter=0;" edge="1" parent="1" target="LdcuwyEImMKDFg9Y8jyX-16">
          <mxGeometry relative="1" as="geometry">
            <mxPoint x="-190" y="61" as="sourcePoint" />
          </mxGeometry>
        </mxCell>
        <mxCell id="LdcuwyEImMKDFg9Y8jyX-18" value="DocumentoMarcaFogo" style="swimlane;fontStyle=0;childLayout=stackLayout;horizontal=1;startSize=26;fillColor=none;horizontalStack=0;resizeParent=1;resizeParentMax=0;resizeLast=0;collapsible=1;marginBottom=0;whiteSpace=wrap;html=1;" vertex="1" parent="1">
          <mxGeometry x="-760" y="18" width="310" height="182" as="geometry" />
        </mxCell>
        <mxCell id="F8_w_qrqe-B912LZK9M1-2" value="parametroMarcaFogo: ParametroMarcaFogo" style="text;strokeColor=none;fillColor=none;align=left;verticalAlign=top;spacingLeft=4;spacingRight=4;overflow=hidden;rotatable=0;points=[[0,0.5],[1,0.5]];portConstraint=eastwest;whiteSpace=wrap;html=1;" vertex="1" parent="LdcuwyEImMKDFg9Y8jyX-18">
          <mxGeometry y="26" width="310" height="26" as="geometry" />
        </mxCell>
        <mxCell id="LdcuwyEImMKDFg9Y8jyX-19" value="naturezaDocumento: NaturezaDocumentoMarcaFogo" style="text;strokeColor=none;fillColor=none;align=left;verticalAlign=top;spacingLeft=4;spacingRight=4;overflow=hidden;rotatable=0;points=[[0,0.5],[1,0.5]];portConstraint=eastwest;whiteSpace=wrap;html=1;" vertex="1" parent="LdcuwyEImMKDFg9Y8jyX-18">
          <mxGeometry y="52" width="310" height="26" as="geometry" />
        </mxCell>
        <mxCell id="LdcuwyEImMKDFg9Y8jyX-20" value="descricao: String" style="text;strokeColor=none;fillColor=none;align=left;verticalAlign=top;spacingLeft=4;spacingRight=4;overflow=hidden;rotatable=0;points=[[0,0.5],[1,0.5]];portConstraint=eastwest;whiteSpace=wrap;html=1;" vertex="1" parent="LdcuwyEImMKDFg9Y8jyX-18">
          <mxGeometry y="78" width="310" height="26" as="geometry" />
        </mxCell>
        <mxCell id="LdcuwyEImMKDFg9Y8jyX-21" value="extensoesPermitidas: String" style="text;strokeColor=none;fillColor=none;align=left;verticalAlign=top;spacingLeft=4;spacingRight=4;overflow=hidden;rotatable=0;points=[[0,0.5],[1,0.5]];portConstraint=eastwest;whiteSpace=wrap;html=1;" vertex="1" parent="LdcuwyEImMKDFg9Y8jyX-18">
          <mxGeometry y="104" width="310" height="26" as="geometry" />
        </mxCell>
        <mxCell id="LdcuwyEImMKDFg9Y8jyX-22" value="obrigatorio: Boolean" style="text;strokeColor=none;fillColor=none;align=left;verticalAlign=top;spacingLeft=4;spacingRight=4;overflow=hidden;rotatable=0;points=[[0,0.5],[1,0.5]];portConstraint=eastwest;whiteSpace=wrap;html=1;" vertex="1" parent="LdcuwyEImMKDFg9Y8jyX-18">
          <mxGeometry y="130" width="310" height="26" as="geometry" />
        </mxCell>
        <mxCell id="LdcuwyEImMKDFg9Y8jyX-23" value="ativo: Boolean" style="text;strokeColor=none;fillColor=none;align=left;verticalAlign=top;spacingLeft=4;spacingRight=4;overflow=hidden;rotatable=0;points=[[0,0.5],[1,0.5]];portConstraint=eastwest;whiteSpace=wrap;html=1;" vertex="1" parent="LdcuwyEImMKDFg9Y8jyX-18">
          <mxGeometry y="156" width="310" height="26" as="geometry" />
        </mxCell>
        <mxCell id="LdcuwyEImMKDFg9Y8jyX-24" value="&lt;span style=&quot;text-align: left;&quot;&gt;NaturezaDocumentoMarcaFogo&lt;/span&gt;" style="swimlane;fontStyle=0;childLayout=stackLayout;horizontal=1;startSize=26;fillColor=none;horizontalStack=0;resizeParent=1;resizeParentMax=0;resizeLast=0;collapsible=1;marginBottom=0;whiteSpace=wrap;html=1;" vertex="1" parent="1">
          <mxGeometry x="-1060" y="75" width="200" height="52" as="geometry" />
        </mxCell>
        <mxCell id="LdcuwyEImMKDFg9Y8jyX-25" value="PROCESSO, PROCURADOR" style="text;strokeColor=none;fillColor=none;align=left;verticalAlign=top;spacingLeft=4;spacingRight=4;overflow=hidden;rotatable=0;points=[[0,0.5],[1,0.5]];portConstraint=eastwest;whiteSpace=wrap;html=1;" vertex="1" parent="LdcuwyEImMKDFg9Y8jyX-24">
          <mxGeometry y="26" width="200" height="26" as="geometry" />
        </mxCell>
        <mxCell id="LdcuwyEImMKDFg9Y8jyX-26" value="&lt;div&gt;&lt;br&gt;&lt;/div&gt;&lt;div&gt;&lt;br&gt;&lt;/div&gt;" style="endArrow=open;html=1;endSize=12;startArrow=diamondThin;startSize=14;startFill=0;edgeStyle=orthogonalEdgeStyle;rounded=0;exitX=-0.013;exitY=0.808;exitDx=0;exitDy=0;exitPerimeter=0;" edge="1" parent="1" source="F8_w_qrqe-B912LZK9M1-2" target="LdcuwyEImMKDFg9Y8jyX-3">
          <mxGeometry relative="1" as="geometry">
            <mxPoint x="-790" y="-30" as="sourcePoint" />
            <mxPoint x="-620" y="-70" as="targetPoint" />
            <Array as="points">
              <mxPoint x="-810" y="65" />
              <mxPoint x="-810" y="-130" />
            </Array>
          </mxGeometry>
        </mxCell>
        <mxCell id="LdcuwyEImMKDFg9Y8jyX-27" value="0..n" style="edgeLabel;resizable=0;html=1;align=left;verticalAlign=top;" connectable="0" vertex="1" parent="LdcuwyEImMKDFg9Y8jyX-26">
          <mxGeometry x="-1" relative="1" as="geometry">
            <mxPoint x="-30" y="-40" as="offset" />
          </mxGeometry>
        </mxCell>
        <mxCell id="LdcuwyEImMKDFg9Y8jyX-28" value="1" style="edgeLabel;resizable=0;html=1;align=right;verticalAlign=top;" connectable="0" vertex="1" parent="LdcuwyEImMKDFg9Y8jyX-26">
          <mxGeometry x="1" relative="1" as="geometry">
            <mxPoint x="-14" y="11" as="offset" />
          </mxGeometry>
        </mxCell>
        <mxCell id="LdcuwyEImMKDFg9Y8jyX-29" style="edgeStyle=orthogonalEdgeStyle;rounded=0;orthogonalLoop=1;jettySize=auto;html=1;exitX=0;exitY=0.5;exitDx=0;exitDy=0;" edge="1" parent="1" source="LdcuwyEImMKDFg9Y8jyX-19" target="LdcuwyEImMKDFg9Y8jyX-25">
          <mxGeometry relative="1" as="geometry">
            <mxPoint x="-930" y="14" as="targetPoint" />
          </mxGeometry>
        </mxCell>
        <mxCell id="f7vZeGXqb7RCeZj0weYw-3" value="CertidaoMarcaFogo" style="swimlane;fontStyle=0;childLayout=stackLayout;horizontal=1;startSize=26;horizontalStack=0;resizeParent=1;resizeParentMax=0;resizeLast=0;collapsible=1;marginBottom=0;whiteSpace=wrap;html=1;" vertex="1" parent="1">
          <mxGeometry x="-400" y="150" width="260" height="104" as="geometry" />
        </mxCell>
        <mxCell id="F8_w_qrqe-B912LZK9M1-1" value="parametroMarcaFogo: ParametroMarcaFogo" style="text;align=left;verticalAlign=top;spacingLeft=4;spacingRight=4;overflow=hidden;rotatable=0;points=[[0,0.5],[1,0.5]];portConstraint=eastwest;whiteSpace=wrap;html=1;" vertex="1" parent="f7vZeGXqb7RCeZj0weYw-3">
          <mxGeometry y="26" width="260" height="26" as="geometry" />
        </mxCell>
        <mxCell id="f7vZeGXqb7RCeZj0weYw-4" value="tipoEmissao: TipoEmissao" style="text;align=left;verticalAlign=top;spacingLeft=4;spacingRight=4;overflow=hidden;rotatable=0;points=[[0,0.5],[1,0.5]];portConstraint=eastwest;whiteSpace=wrap;html=1;" vertex="1" parent="f7vZeGXqb7RCeZj0weYw-3">
          <mxGeometry y="52" width="260" height="26" as="geometry" />
        </mxCell>
        <mxCell id="f7vZeGXqb7RCeZj0weYw-6" value="tipoDoctoOficial: TipoDoctoOficial" style="text;align=left;verticalAlign=top;spacingLeft=4;spacingRight=4;overflow=hidden;rotatable=0;points=[[0,0.5],[1,0.5]];portConstraint=eastwest;whiteSpace=wrap;html=1;" vertex="1" parent="f7vZeGXqb7RCeZj0weYw-3">
          <mxGeometry y="78" width="260" height="26" as="geometry" />
        </mxCell>
        <mxCell id="f7vZeGXqb7RCeZj0weYw-7" value="" style="endArrow=open;html=1;endSize=12;startArrow=diamondThin;startSize=14;startFill=0;edgeStyle=orthogonalEdgeStyle;rounded=0;exitX=0;exitY=0.5;exitDx=0;exitDy=0;" edge="1" parent="1" source="F8_w_qrqe-B912LZK9M1-1">
          <mxGeometry relative="1" as="geometry">
            <mxPoint x="-460" y="177" as="sourcePoint" />
            <mxPoint x="-460" y="-100" as="targetPoint" />
            <Array as="points">
              <mxPoint x="-440" y="-100" />
            </Array>
          </mxGeometry>
        </mxCell>
        <mxCell id="f7vZeGXqb7RCeZj0weYw-8" value="0..n" style="edgeLabel;resizable=0;html=1;align=left;verticalAlign=top;" connectable="0" vertex="1" parent="f7vZeGXqb7RCeZj0weYw-7">
          <mxGeometry x="-1" relative="1" as="geometry">
            <mxPoint x="-40" y="-29" as="offset" />
          </mxGeometry>
        </mxCell>
        <mxCell id="f7vZeGXqb7RCeZj0weYw-9" value="1" style="edgeLabel;resizable=0;html=1;align=right;verticalAlign=top;" connectable="0" vertex="1" parent="f7vZeGXqb7RCeZj0weYw-7">
          <mxGeometry x="1" relative="1" as="geometry">
            <mxPoint x="10" y="18" as="offset" />
          </mxGeometry>
        </mxCell>
      </root>
    </mxGraphModel>
  </diagram>
</mxfile>
